<?xml version="1.0" encoding="UTF-8" standalone="no"?>
<svg width="12px" height="16px" viewBox="0 0 12 16" version="1.1" xmlns="http://www.w3.org/2000/svg" xmlns:xlink="http://www.w3.org/1999/xlink">
    <!-- Generator: Sketch 50.2 (55047) - http://www.bohemiancoding.com/sketch -->
    <title>award</title>
    <desc>Created with Sketch.</desc>
    <defs>
        <path d="M6.00997677,10.2830153 L5.50962912,14.0500956 L7.65700283,12.7616714 C7.86812442,12.6349984 8.13187558,12.6349984 8.34299717,12.7616714 L10.4905878,14.0502258 L9.99073358,10.2827294 C9.37562872,10.5303682 8.70373147,10.6666667 8,10.6666667 C7.29653942,10.6666667 6.62488856,10.5304731 6.00997677,10.2830153 Z M4.75966469,9.56979423 C3.48722303,8.59507252 2.66666667,7.06002853 2.66666667,5.33333333 C2.66666667,2.38781467 5.05448133,0 8,0 C10.9455187,0 13.3333333,2.38781467 13.3333333,5.33333333 C13.3333333,7.05968911 12.5130995,8.59446901 11.2410856,9.56921935 L11.9942088,15.2456514 C12.0676321,15.799057 11.469036,16.1922152 10.9903362,15.9049953 L8,14.1107936 L5.00966384,15.9049953 C4.53092602,16.192238 3.93229543,15.7989959 4.0058038,15.2455568 L4.75966469,9.56979423 Z M10.2203942,8.66097891 C11.2934071,7.94357927 12,6.72097311 12,5.33333333 C12,3.12419433 10.209139,1.33333333 8,1.33333333 C5.790861,1.33333333 4,3.12419433 4,5.33333333 C4,7.54247233 5.790861,9.33333333 8,9.33333333 C8.77589422,9.33333333 9.50019149,9.11242056 10.1134247,8.73006216 C10.1465543,8.70384784 10.182333,8.68066048 10.2203942,8.66097891 Z" id="path-1"></path>
    </defs>
    <g id="Page-1" stroke="none" stroke-width="1" fill="none" fill-rule="evenodd">
        <g id="Desktop" transform="translate(-700.000000, -424.000000)">
            <g id="award" transform="translate(698.000000, 424.000000)">
                <mask id="mask-2" fill="white">
                    <use xlink:href="#path-1"></use>
                </mask>
                <use id="Combined-Shape" fill="#000000" fill-rule="nonzero" xlink:href="#path-1"></use>
                <g id="COLOR/-black" mask="url(#mask-2)" fill="#000000" fill-rule="evenodd">
                    <rect id="Rectangle" x="0" y="0" width="16" height="16"></rect>
                </g>
            </g>
        </g>
    </g>
</svg>