<?xml version="1.0" encoding="UTF-8" standalone="no"?>
<svg width="58px" height="100px" viewBox="0 0 58 100" version="1.1" xmlns="http://www.w3.org/2000/svg" xmlns:xlink="http://www.w3.org/1999/xlink">
    <!-- Generator: Sketch 50.2 (55047) - http://www.bohemiancoding.com/sketch -->
    <title>Group</title>
    <desc>Created with Sketch.</desc>
    <defs></defs>
    <g id="Page-1" stroke="none" stroke-width="1" fill="none" fill-rule="evenodd" stroke-linecap="round" stroke-linejoin="round">
        <g id="Desktop" transform="translate(-856.000000, -197.000000)" stroke="#231F20" stroke-width="3">
            <g id="quiniela-camp" transform="translate(680.000000, 128.000000)">
                <g id="Group" transform="translate(178.000000, 71.000000)">
                    <path d="M38.1861447,27.2475915 C38.1861447,30.6355064 35.4395915,33.3813787 32.0516766,33.3813787 C28.6644426,33.3813787 25.9172085,30.6355064 25.9172085,27.2475915 C25.9172085,23.8596766 28.6644426,21.1131234 32.0516766,21.1131234 C35.4395915,21.1131234 38.1861447,23.8596766 38.1861447,27.2475915 Z" id="Stroke-1"></path>
                    <path d="M46.7446468,21.1133277 C46.7446468,10.615966 38.2346894,0.339880851 27.7373277,0.339880851 C17.239966,0.339880851 8.73000851,8.8498383 8.73000851,19.3472 C8.73000851,26.8025191 13.0227745,33.2556255 19.2702638,36.3698383" id="Stroke-3"></path>
                    <path d="M27.5677957,31.4314213 C27.5677957,31.4314213 23.7625191,29.4780596 21.253583,24.7379745 C18.743966,19.9978894 15.8163064,13.7245277 17.2106894,23.483166 C18.6043915,33.2424851 22.5077106,51.5049532 21.5327319,55.6874213 C20.5563915,59.8698894 13.3073702,78.6906553 13.3073702,78.6906553" id="Stroke-5"></path>
                    <path d="M37.582434,29.9042043 C37.582434,29.9042043 41.3291574,25.2955234 42.4443915,21.1130553 C43.5596255,16.9305872 46.5846468,15.6764596 46.7446468,21.1130553 C46.9053277,26.5503319 44.5352851,35.0541617 40.7715404,42.1642894 C37.0071149,49.2750979 29.6185191,60.1489702 29.1997957,71.3019915" id="Stroke-7"></path>
                    <path d="M10.4460936,27.2475915 L19.8418383,61.0273362" id="Stroke-9"></path>
                    <path d="M35.4028936,51.8795574 C35.4028936,51.8795574 35.1945532,68.6530043 41.8859574,78.6907915" id="Stroke-11"></path>
                    <path d="M4.75594894,86.9184681 L4.75594894,83.1492766 C4.75594894,80.6873191 6.75220426,78.6910638 9.21484255,78.6910638 L45.4667574,78.6910638 C47.9293957,78.6910638 49.9256511,80.6873191 49.9256511,83.1492766 L49.9256511,86.9184681" id="Stroke-13"></path>
                    <path d="M54.3410383,95.767217 L54.3410383,92.2492596 C54.3410383,89.3052596 51.9546553,86.9181957 49.0106553,86.9181957 L5.67108085,86.9181957 C2.7264,86.9181957 0.340697872,89.3052596 0.340697872,92.2492596 L0.340697872,95.767217 L54.3410383,95.767217 Z" id="Stroke-15"></path>
                </g>
            </g>
        </g>
    </g>
</svg>